:SAMPLES-PER-SECOND 30
:FULLY-SPECIFIED
:DEGREES
248
root  -3.32699 40.8691 1.80373 176.405 -77.5414 -178.355
RightUpLeg  4.42899 -1.63244 -3.07893
RightLeg  -0.119889 -7.09082 -0.78479
RightFoot  -0.812611 -0.515605 5.5683
RightToes  -3.13006e-008 1.75238e-005 3.56266e-009
Spine  -11.0203 0.342437 1.96896
Spine1  17.3782 -1.07197 2.89115
HEad  -8.29782 16.9873 16.7076
LeftShoulder1  2.31349 -3.77458 -25.6356
LeftArm  -76.1754 18.8466 -44.5821
LeftForeArm  -178.747 -79.3785 -131.679
LeftHand  0.0885931 -5.86001 -0.584464
RightShoulder  3.45996 7.1252 26.5325
RightArm  -27.2855 12.9564 43.4921
RightForeArm  74.4793 78.5389 51.97
RightHand  -0.519791 4.90091 -6.15117
LeftUpLeg  7.78626 1.35243 0.252829
LeftLeg  -2.43277 25.0674 -1.57992
LeftFoot  -2.78795 0.184137 -2.18355
LeftToes  4.76866e-008 1.46233e-008 1.30548e-009
249
root  -3.34904 40.8619 1.88153 177.087 -76.7791 -178.857
RightUpLeg  4.03222 -1.64662 -3.27963
RightLeg  0.0321559 -6.27663 -0.892748
RightFoot  -0.865391 -0.520161 5.62135
RightToes  -3.13006e-008 1.75238e-005 3.56266e-009
Spine  -11.0421 0.394506 1.82283
Spine1  17.6845 -1.15748 3.35375
HEad  -8.83397 17.5061 16.3544
LeftShoulder1  2.28969 -3.69646 -25.646
LeftArm  -79.0421 25.6996 -47.134
LeftForeArm  -178.893 -79.2455 -132.295
LeftHand  0.0500516 -5.78778 -0.19416
RightShoulder  3.44381 7.00478 26.7621
RightArm  -30.2716 9.29857 41.9118
RightForeArm  77.7075 78.9824 55.0007
RightHand  -0.610162 5.11071 -7.0352
LeftUpLeg  7.67303 1.21362 -0.0518412
LeftLeg  -2.49181 26.0277 -1.66717
LeftFoot  -2.8753 0.180085 -2.12973
LeftToes  4.76866e-008 1.46233e-008 1.30548e-009
250
root  -3.36146 40.8563 1.93649 177.372 -76.1066 -179.045
RightUpLeg  3.8226 -1.55497 -3.33708
RightLeg  0.013671 -5.72171 -1.02688
RightFoot  -0.862146 -0.532954 5.80078
RightToes  -3.13006e-008 1.75238e-005 3.56266e-009
Spine  -10.6758 0.483982 1.86764
Spine1  17.7689 -1.05519 3.34842
HEad  -8.85881 19.2411 16.8033
LeftShoulder1  2.081 -3.15204 -25.0852
LeftArm  -81.2365 31.108 -50.9085
LeftForeArm  -178.69 -78.9937 -133.501
LeftHand  0.0879222 -6.09481 -0.562371
RightShoulder  3.37109 6.66291 27.1662
RightArm  -32.4712 6.05737 41.2455
RightForeArm  78.9999 79.1472 56.3212
RightHand  -0.708568 4.98421 -8.215
LeftUpLeg  7.60318 1.2613 -0.151549
LeftLeg  -2.44871 26.6688 -1.81441
LeftFoot  -3.02842 0.171521 -2.00583
LeftToes  4.76866e-008 1.46233e-008 1.30548e-009
251
root  -3.36372 40.85 1.98863 177.501 -75.7863 -179.001
RightUpLeg  3.55671 -1.52272 -3.38559
RightLeg  0.0380802 -5.42868 -1.04804
RightFoot  -0.881835 -0.533463 5.79032
RightToes  -3.13006e-008 1.75238e-005 3.56266e-009
Spine  -10.9359 0.64114 2.17989
Spine1  18.4358 -0.817916 2.94279
HEad  -9.5588 19.533 17.0226
LeftShoulder1  1.92092 -2.71031 -24.7179
LeftArm  -82.5567 34.7051 -54.4804
LeftForeArm  -179.218 -78.7411 -134.508
LeftHand  0.249392 -6.84621 -1.96848
RightShoulder  3.25448 6.20298 27.5511
RightArm  -33.7786 2.5548 40.3842
RightForeArm  79.1112 79.2638 57.9747
RightHand  -0.712779 4.81774 -8.38823
LeftUpLeg  7.32825 1.24801 -0.225278
LeftLeg  -2.23125 26.9819 -1.77748
LeftFoot  -3.15671 0.165984 -1.92905
LeftToes  4.76866e-008 1.46233e-008 1.30548e-009
252
root  -3.35083 40.8451 2.02124 177.411 -75.731 -178.826
RightUpLeg  3.44686 -1.42838 -3.34195
RightLeg  0.00728544 -5.47713 -1.10345
RightFoot  -0.864616 -0.541325 5.89443
RightToes  -3.13006e-008 1.75238e-005 3.56266e-009
Spine  -11.2184 0.818937 2.55617
Spine1  19.0958 -0.539913 2.47585
HEad  -10.4617 19.3815 16.9751
LeftShoulder1  1.96723 -2.83953 -24.8236
LeftArm  -83.5439 35.9134 -55.7498
LeftForeArm  178.342 -79.0943 -132.417
LeftHand  0.510052 -8.35897 -3.94139
RightShoulder  3.31475 6.23568 28.074
RightArm  -35.8015 0.0287693 39.7035
RightForeArm  76.2842 78.9942 56.2216
RightHand  -0.64926 5.1712 -7.41711
LeftUpLeg  7.1248 1.26648 -0.216071
LeftLeg  -2.02412 27.02 -1.71878
LeftFoot  -3.25464 0.160001 -1.84536
LeftToes  4.76866e-008 1.46233e-008 1.30548e-009
253
root  -3.29538 40.8426 2.03283 177.53 -75.9733 -179.065
RightUpLeg  3.44529 -1.4022 -3.34919
RightLeg  0.157234 -5.7239 -1.20186
RightFoot  -0.911463 -0.53345 5.75333
RightToes  -3.13006e-008 1.75238e-005 3.56266e-009
Spine  -11.266 0.892144 2.54115
Spine1  19.9287 -0.423412 2.33831
HEad  -11.3108 19.612 16.9058
LeftShoulder1  1.91303 -2.60681 -25.1256
LeftArm  -82.5164 34.5656 -54.5387
LeftForeArm  174.569 -79.5344 -129.38
LeftHand  0.632637 -7.9935 -5.09195
RightShoulder  3.43935 6.56148 28.2124
RightArm  -37.8166 -1.39992 38.8852
RightForeArm  71.807 78.5852 54.0125
RightHand  -0.520251 4.95923 -6.13157
LeftUpLeg  7.07335 1.29536 -0.229126
LeftLeg  -1.88792 26.7621 -1.71887
LeftFoot  -3.25986 0.151901 -1.72881
LeftToes  4.76866e-008 1.46233e-008 1.30548e-009
254
root  -3.2142 40.8443 2.0318 177.877 -76.5755 -179.571
RightUpLeg  3.49431 -1.49746 -3.45431
RightLeg  0.328579 -6.20306 -1.2362
RightFoot  -0.960735 -0.53567 5.76784
RightToes  -3.13006e-008 1.75238e-005 3.56266e-009
Spine  -10.921 0.915009 2.42693
Spine1  19.9702 -0.28469 2.12229
HEad  -12.0003 19.5886 16.6146
LeftShoulder1  1.98697 -2.8301 -25.1934
LeftArm  -81.1479 31.6421 -51.5675
LeftForeArm  169.61 -80.0929 -124.93
LeftHand  0.638912 -8.21625 -5.06357
RightShoulder  3.50499 6.74774 28.2337
RightArm  -39.7122 -1.4235 38.0957
RightForeArm  67.6269 77.9738 50.6777
RightHand  -0.512664 4.92931 -6.0579
LeftUpLeg  7.03478 1.25307 -0.291204
LeftLeg  -1.8416 26.1908 -1.7161
LeftFoot  -3.15885 0.142451 -1.59129
LeftToes  4.76866e-008 1.46233e-008 1.30548e-009
255
root  -3.13392 40.847 2.01827 177.743 -77.4712 -179.661
RightUpLeg  3.75773 -1.5497 -3.43803
RightLeg  0.337484 -7.03066 -1.21993
RightFoot  -0.928322 -0.536197 5.7539
RightToes  -3.13006e-008 1.75238e-005 3.56266e-009
Spine  -10.6636 0.712103 2.13073
Spine1  19.8668 -0.468378 2.15394
HEad  -11.9672 19.4367 16.3193
LeftShoulder1  2.11397 -3.24089 -25.1705
LeftArm  -79.5881 27.4884 -47.5439
LeftForeArm  165.354 -80.6351 -120.009
LeftHand  0.462301 -7.96071 -3.61621
RightShoulder  3.48444 6.86754 27.6168
RightArm  -42.7312 2.99008 38.6301
RightForeArm  60.3886 76.0075 40.3617
RightHand  -0.539007 4.97309 -6.32935
LeftUpLeg  7.03964 1.28506 -0.203267
LeftLeg  -1.7426 25.2566 -1.65648
LeftFoot  -3.05112 0.137244 -1.51976
LeftToes  4.76866e-008 1.46233e-008 1.30548e-009
256
root  -3.04044 40.854 1.9941 177.934 -78.3502 -179.95
RightUpLeg  3.82093 -1.59495 -3.43893
RightLeg  0.413234 -7.8608 -1.22218
RightFoot  -0.871215 -0.535248 5.71406
RightToes  -3.13006e-008 1.75238e-005 3.56266e-009
Spine  -10.3855 0.584912 1.91264
Spine1  19.5835 -0.487071 1.96643
HEad  -11.5774 19.1079 16.2062
LeftShoulder1  2.17373 -3.5132 -24.7888
LeftArm  -77.244 22.3092 -43.3971
LeftForeArm  163.194 -80.8948 -117.256
LeftHand  0.26308 -6.74758 -2.17473
RightShoulder  3.41479 6.76055 27.2805
RightArm  -43.4309 6.28374 38.5007
RightForeArm  59.9559 75.7716 39.5117
RightHand  -0.554384 4.80946 -6.59402
LeftUpLeg  6.91609 1.23143 -0.173861
LeftLeg  -1.73507 24.4519 -1.60924
LeftFoot  -2.81898 0.132298 -1.4523
LeftToes  4.76866e-008 1.46233e-008 1.30548e-009
257
root  -2.97282 40.8613 1.97577 177.582 -79.1546 -179.683
RightUpLeg  4.06721 -1.62963 -3.36584
RightLeg  0.16899 -8.63766 -1.10622
RightFoot  -0.705883 -0.534028 5.66628
RightToes  -3.13006e-008 1.75238e-005 3.56266e-009
Spine  -9.66405 0.555487 1.58977
Spine1  18.3553 -0.538269 2.23284
HEad  -10.4589 18.4816 16.3945
LeftShoulder1  2.31189 -3.99859 -24.6218
LeftArm  -74.0507 17.4166 -39.3916
LeftForeArm  164.376 -80.845 -118.055
LeftHand  0.187847 -6.10472 -1.56673
RightShoulder  3.43094 6.94812 26.8192
RightArm  -43.5863 9.94825 38.0942
RightForeArm  61.0332 76.0864 40.6514
RightHand  -0.540792 4.76349 -6.45352
LeftUpLeg  6.8548 1.15717 -0.106256
LeftLeg  -1.76931 23.7316 -1.4729
LeftFoot  -2.58285 0.121174 -1.2888
LeftToes  4.76866e-008 1.46233e-008 1.30548e-009
258
root  -2.91167 40.8706 1.94813 177.494 -79.5328 -179.626
RightUpLeg  4.13618 -1.65777 -3.32168
RightLeg  0.0372107 -9.00738 -1.02081
RightFoot  -0.584922 -0.529301 5.55947
RightToes  -3.13006e-008 1.75238e-005 3.56266e-009
Spine  -9.22676 0.664379 1.1716
Spine1  17.5746 -0.449403 2.54747
HEad  -9.93415 18.053 16.3256
LeftShoulder1  2.31122 -4.13252 -24.0487
LeftArm  -69.7874 12.5682 -36.5365
LeftForeArm  169.739 -80.4389 -122.679
LeftHand  0.0376294 -6.07666 -0.0303693
RightShoulder  3.35519 6.94991 26.0543
RightArm  -41.9842 13.8791 38.2769
RightForeArm  63.8723 76.6824 42.8151
RightHand  -0.66095 5.21369 -7.53291
LeftUpLeg  6.7736 1.1366 -0.0312929
LeftLeg  -1.78396 23.3843 -1.42831
LeftFoot  -2.44062 0.133934 -1.49654
LeftToes  4.76866e-008 1.46233e-008 1.30548e-009
